<svg aria-hidden="true" style="position: absolute; width: 0; height: 0; overflow: hidden;" version="1.1" xmlns="http://www.w3.org/2000/svg" xmlns:xlink="http://www.w3.org/1999/xlink">
<defs>
<symbol id="icon-star" viewBox="0 0 10 10">
<path fill-rule="evenodd" clip-rule="evenodd" d="M3.526 2.55C3.91 1.629 4.642 0 5.009 0c.532 0 1.697 3.16 1.697 3.16s1.08.099 1.952.2c.463.054 1.29.137 1.341.406.011.058-.055.297-.176.463-.512.705-1.841 2.217-1.841 2.217s.073.722.138 1.512c.041.511.154 1.547.113 1.732-.044.204-.124.26-.207.292-.216.083-.719-.241-1.306-.538-.8-.405-1.698-.837-1.698-.837s-.593.327-1.296.646c-.75.341-1.51.904-1.828.706-.198-.124-.05-1.09.025-1.95.071-.81.133-1.55.133-1.55s-.44-.546-.953-1.13C.55 4.7-.126 4.02.02 3.77c.11-.19.614-.29 1.46-.4a54.795 54.795 0 0 1 1.796-.202s.098-.253.25-.617Z"/>
</symbol>
<symbol id="icon-location" viewBox="0 0 13 18">
<path fill-rule="evenodd" clip-rule="evenodd" d="M6.5 18S13 11.97 13 7s-2.91-7-6.5-7S0 2.03 0 7c0 4.97 6.5 11 6.5 11Zm0-8a3.5 3.5 0 1 0 0-7 3.5 3.5 0 0 0 0 7Z"/>
</symbol>
<symbol id="icon-bookmark" viewBox="0 0 32 32">
<path clip-rule="evenodd" d="M8 8a2.667 2.667 0 0 1 2.667-2.667h10.666A2.667 2.667 0 0 1 24 8v15.994c0 1.165-1.391 1.77-2.243.974l-4.847-4.525a1.333 1.333 0 0 0-1.82 0l-4.847 4.525c-.852.796-2.243.191-2.243-.974V8Z" stroke="#70778B" stroke-width="2"/>
</symbol>
<symbol id="icon-spinner" viewBox="0 0 32 32">
<path d="M12 4a4 4 0 1 1 8 0 4 4 0 0 1-8 0zm12.719 12a3.281 3.281 0 0 1 6.562 0 3.281 3.281 0 0 1-6.562 0zm-3.206 8.485a2.972 2.972 0 1 1 5.945.001 2.972 2.972 0 0 1-5.945-.001zM13.308 28a2.692 2.692 0 1 1 5.383 0 2.692 2.692 0 0 1-5.383 0zm-8.231-3.515a2.439 2.439 0 1 1 4.877.001 2.439 2.439 0 0 1-4.877-.001zM1.792 16a2.208 2.208 0 1 1 4.416 0 2.208 2.208 0 0 1-4.416 0zm3.723-8.485a2 2 0 1 1 4 0 2 2 0 1 1-4 0zm22.593 0a3.623 3.623 0 1 1-7.246 0 3.623 3.623 0 0 1 7.246 0z"/>
</symbol>
</defs>
</svg>
